  0
SECTION
  2
HEADER
  9
$ACADVER
  1
AC1009
  9
$INSBASE
 10
0.0
 20
0.0
 30
0.0
  9
$EXTMIN
 10
0.0
 20
0.0
 30
0.0
  9
$EXTMAX
 10
0.0
 20
0.0
 30
0.0
  0
ENDSEC
  0
SECTION
  2
TABLES
  0
TABLE
  2
VPORT
 70
0
  0
ENDTAB
  0
TABLE
  2
LTYPE
 70
1
  0
LTYPE
  2
CONTINUOUS
 70
0
  3
Solid line
 72
65
 73
0
 40
0.0
  0
ENDTAB
  0
TABLE
  2
LAYER
 70
1
  0
LAYER
  2
0
 70
64
 62
7
  6
continuous
  0
ENDTAB
  0
TABLE
  2
STYLE
 70
1
  0
STYLE
  2
STANDARD
 70
0
 40
0
 41
1.0
 50
0.0
 71
0
 42
1
 3
ARIAL.TTF
 4

  0
ENDTAB
  0
TABLE
  2
VIEW
 70
0
  0
ENDTAB
  0
ENDSEC
  0
SECTION
  2
BLOCKS
  0
BLOCK
  8
0
  2
SHAPE2DVIEW
 70
0
 10
0.0
 20
0.0
 30
0.0
  3
SHAPE2DVIEW
  0
LINE
  8
0
 62
0
 10
0.0
 20
4.0
 30
0.0
 11
0.0
 21
79.0
 31
0.0
  0
ARC
  8
0
 62
0
 10
4.0
 20
4.0
 30
0.0
 40
4.0
 50
180.0
 51
-90.0
  0
ARC
  8
0
 62
0
 10
4.0
 20
79.0
 30
0.0
 40
4.0
 50
90.0
 51
-180.0
  0
LINE
  8
0
 62
0
 10
4.0
 20
0.0
 30
0.0
 11
54.0
 21
0.0
 31
0.0
  0
LINE
  8
0
 62
0
 10
4.0
 20
83.0
 30
0.0
 11
54.0
 21
83.0
 31
0.0
  0
ARC
  8
0
 62
0
 10
54.0
 20
4.0
 30
0.0
 40
4.0
 50
-90.0
 51
-0.0
  0
ARC
  8
0
 62
0
 10
54.0
 20
79.0
 30
0.0
 40
4.0
 50
-0.0
 51
90.0
  0
LINE
  8
0
 62
0
 10
58.0
 20
4.0
 30
0.0
 11
58.0
 21
79.0
 31
0.0
  0
CIRCLE
  8
0
 62
0
 10
4.4
 20
4.4
 30
0.0
 40
1.7
  0
ARC
  8
0
 62
0
 10
53.6
 20
4.4
 30
0.0
 40
3.2
 50
96.2792883226
 51
173.720711677
  0
LINE
  8
0
 62
0
 10
53.25
 20
7.58080178571
 30
0.0
 11
53.25
 21
7.6
 31
0.0
  0
LINE
  8
0
 62
0
 10
50.4191982143
 20
4.75
 30
0.0
 11
50.25
 21
4.75
 31
0.0
  0
LINE
  8
0
 62
0
 10
53.6000000157
 20
7.6
 30
0.0
 11
53.25
 21
7.6
 31
0.0
  0
LINE
  8
0
 62
0
 10
50.25
 20
1.7
 30
0.0
 11
50.25
 21
4.75
 31
0.0
  0
LINE
  8
0
 62
0
 10
56.3
 20
7.6
 30
0.0
 11
53.6000000157
 21
7.6
 31
0.0
  0
LINE
  8
0
 62
0
 10
7.6
 20
1.7
 30
0.0
 11
50.25
 21
1.7
 31
0.0
  0
LINE
  8
0
 62
0
 10
56.3
 20
7.6
 30
0.0
 11
56.3
 21
75.25
 31
0.0
  0
LINE
  8
0
 62
0
 10
7.6
 20
1.7
 30
0.0
 11
7.6
 21
4.4
 31
0.0
  0
LINE
  8
0
 62
0
 10
56.3
 20
75.25
 30
0.0
 11
53.25
 21
75.25
 31
0.0
  0
LINE
  8
0
 62
0
 10
7.6
 20
4.4
 30
0.0
 11
7.6
 21
4.75
 31
0.0
  0
LINE
  8
0
 62
0
 10
53.25
 20
75.25
 30
0.0
 11
53.25
 21
75.4191982143
 31
0.0
  0
LINE
  8
0
 62
0
 10
7.6
 20
4.75
 30
0.0
 11
7.58080178571
 21
4.75
 31
0.0
  0
ARC
  8
0
 62
0
 10
53.6
 20
78.6
 30
0.0
 40
3.2
 50
-173.720711677
 51
-96.2792883226
  0
ARC
  8
0
 62
0
 10
4.4
 20
4.4
 30
0.0
 40
3.2
 50
6.27928832255
 51
83.7207116774
  0
LINE
  8
0
 62
0
 10
50.4191982143
 20
78.25
 30
0.0
 11
50.25
 21
78.25
 31
0.0
  0
LINE
  8
0
 62
0
 10
4.75
 20
7.58080178571
 30
0.0
 11
4.75
 21
7.6
 31
0.0
  0
LINE
  8
0
 62
0
 10
50.25
 20
78.25
 30
0.0
 11
50.25
 21
81.3
 31
0.0
  0
LINE
  8
0
 62
0
 10
4.75
 20
7.6
 30
0.0
 11
4.40000001571
 21
7.6
 31
0.0
  0
LINE
  8
0
 62
0
 10
7.6
 20
81.3
 30
0.0
 11
50.25
 21
81.3
 31
0.0
  0
LINE
  8
0
 62
0
 10
4.40000001571
 20
7.6
 30
0.0
 11
1.7
 21
7.6
 31
0.0
  0
LINE
  8
0
 62
0
 10
7.6
 20
78.6
 30
0.0
 11
7.6
 21
81.3
 31
0.0
  0
LINE
  8
0
 62
0
 10
1.7
 20
7.6
 30
0.0
 11
1.7
 21
75.25
 31
0.0
  0
LINE
  8
0
 62
0
 10
7.6
 20
78.25
 30
0.0
 11
7.6
 21
78.6
 31
0.0
  0
LINE
  8
0
 62
0
 10
4.75
 20
75.25
 30
0.0
 11
1.7
 21
75.25
 31
0.0
  0
LINE
  8
0
 62
0
 10
7.6
 20
78.25
 30
0.0
 11
7.58080178571
 21
78.25
 31
0.0
  0
LINE
  8
0
 62
0
 10
4.75
 20
75.25
 30
0.0
 11
4.75
 21
75.4191982143
 31
0.0
  0
ARC
  8
0
 62
0
 10
4.4
 20
78.6
 30
0.0
 40
3.2
 50
-83.7207116774
 51
-6.27928832255
  0
CIRCLE
  8
0
 62
0
 10
4.4
 20
78.6
 30
0.0
 40
1.7
  0
CIRCLE
  8
0
 62
0
 10
53.6
 20
4.4
 30
0.0
 40
1.7
  0
CIRCLE
  8
0
 62
0
 10
53.6
 20
78.6
 30
0.0
 40
1.7
  0
ENDBLK
  0
ENDSEC
  0
SECTION
  2
ENTITIES
  0
INSERT
  2
SHAPE2DVIEW
  8
0
 62
0
 10
0.0
 20
0.0
 30
0.0
  0
ENDSEC
  0
EOF
